<?xml version="1.0" encoding="UTF-8"?>
<svg width="24px" height="22px" viewBox="0 0 24 22" version="1.1" xmlns="http://www.w3.org/2000/svg" xmlns:xlink="http://www.w3.org/1999/xlink">
    <!-- Generator: Sketch 48.1 (47250) - http://www.bohemiancoding.com/sketch -->
    <title>noun_1265786_cc</title>
    <desc>Created with Sketch.</desc>
    <defs></defs>
    <g id="Page-1" stroke="none" stroke-width="1" fill="none" fill-rule="evenodd">
        <g id="noun_1265786_cc" fill="#000000" fill-rule="nonzero">
            <g id="Group">
                <path d="M23.546,0.065 L0.454,0.065 C0.233,0.065 0.054,0.245 0.054,0.465 L0.054,14.02 C0.054,14.241 0.233,14.42 0.454,14.42 L5.702,14.42 C5.923,14.42 6.102,14.24 6.102,14.02 C6.102,13.8 5.923,13.62 5.702,13.62 L0.854,13.62 L0.854,0.866 L23.146,0.866 L23.146,13.619 L18.298,13.619 C18.077,13.619 17.898,13.799 17.898,14.019 C17.898,14.239 18.077,14.419 18.298,14.419 L23.546,14.419 C23.767,14.419 23.946,14.239 23.946,14.019 L23.946,0.466 C23.946,0.245 23.767,0.065 23.546,0.065 Z" id="Shape"></path>
                <path d="M3.466,3.878 L6.98,3.878 C7.201,3.878 7.38,3.698 7.38,3.478 C7.38,3.258 7.201,3.078 6.98,3.078 L3.466,3.078 C3.245,3.078 3.066,3.258 3.066,3.478 C3.066,3.698 3.245,3.878 3.466,3.878 Z" id="Shape"></path>
                <path d="M3.466,5.886 L9.49,5.886 C9.711,5.886 9.89,5.706 9.89,5.486 C9.89,5.266 9.711,5.086 9.49,5.086 L3.466,5.086 C3.245,5.086 3.066,5.266 3.066,5.486 C3.066,5.706 3.245,5.886 3.466,5.886 Z" id="Shape"></path>
                <path d="M16.559,10.777 L16.559,9.653 C16.559,8.763 15.829,8.04 14.931,8.04 L13.806,8.04 L13.146,7.381 C12.837,7.071 12.428,6.902 11.995,6.902 C11.991,6.902 11.986,6.902 11.981,6.902 C11.55,6.905 11.148,7.077 10.854,7.381 L10.194,8.041 L9.069,8.041 C8.172,8.041 7.441,8.765 7.441,9.654 L7.441,10.778 L6.78,11.439 C6.471,11.748 6.301,12.155 6.301,12.585 C6.301,13.016 6.471,13.422 6.78,13.731 L7.441,14.391 L7.441,15.515 C7.441,16.093 7.759,16.604 8.249,16.891 L6.928,19.635 C6.865,19.765 6.878,19.917 6.959,20.035 C7.04,20.154 7.175,20.22 7.322,20.207 L9.177,20.049 L10.265,21.747 C10.339,21.863 10.461,21.952 10.606,21.932 C10.744,21.93 10.872,21.858 10.943,21.74 L12,20.006 L13.055,21.739 C13.127,21.857 13.254,21.929 13.392,21.931 C13.393,21.931 13.395,21.931 13.396,21.931 C13.532,21.931 13.659,21.862 13.733,21.746 L14.821,20.048 L16.676,20.206 C16.823,20.218 16.958,20.153 17.039,20.034 C17.121,19.916 17.133,19.763 17.07,19.634 L15.75,16.894 C16.233,16.607 16.557,16.088 16.557,15.514 L16.557,14.39 L17.213,13.734 C17.522,13.436 17.693,13.034 17.696,12.602 C17.699,12.164 17.529,11.749 17.217,11.439 L16.559,10.777 Z M14.65,19.231 C14.498,19.222 14.359,19.289 14.279,19.414 L13.406,20.776 L12.342,19.029 C12.269,18.91 12.14,18.837 12,18.837 C11.86,18.837 11.731,18.91 11.658,19.029 L10.594,20.776 L9.721,19.414 C9.64,19.289 9.506,19.222 9.35,19.231 L7.953,19.35 L9.144,16.876 C9.284,16.863 9.473,16.851 9.648,16.851 C9.858,16.851 9.928,16.871 9.929,16.871 C10.045,16.926 10.396,17.287 10.71,17.678 C11.395,18.365 12.573,18.4 13.321,17.645 C13.605,17.289 13.956,16.926 14.065,16.874 C14.067,16.873 14.134,16.852 14.353,16.852 C14.527,16.852 14.716,16.865 14.856,16.877 L16.047,19.351 L14.65,19.231 Z M16.654,13.164 L15.877,13.941 C15.802,14.016 15.76,14.118 15.76,14.224 L15.76,15.514 C15.76,15.794 15.606,16.052 15.372,16.199 C15.314,16.15 15.246,16.113 15.168,16.104 C15.168,16.104 14.731,16.051 14.353,16.051 C14.087,16.051 13.9,16.076 13.766,16.131 C13.413,16.277 12.899,16.889 12.725,17.111 C12.34,17.496 11.629,17.462 11.306,17.145 C11.102,16.888 10.588,16.275 10.234,16.13 C10.1,16.075 9.914,16.05 9.648,16.05 C9.269,16.05 8.832,16.103 8.832,16.103 C8.756,16.112 8.689,16.148 8.631,16.195 C8.394,16.048 8.241,15.797 8.241,15.513 L8.241,14.223 C8.241,14.117 8.199,14.015 8.124,13.94 L7.347,13.164 C7.189,13.006 7.102,12.8 7.102,12.583 C7.102,12.367 7.189,12.161 7.346,12.004 L8.124,11.226 C8.199,11.151 8.241,11.049 8.241,10.943 L8.241,9.653 C8.241,9.213 8.62,8.84 9.069,8.84 L10.36,8.84 C10.466,8.84 10.568,8.797 10.643,8.723 L11.425,7.941 C11.573,7.788 11.773,7.703 11.988,7.701 C12.229,7.7 12.422,7.787 12.58,7.946 L13.357,8.723 C13.432,8.797 13.534,8.84 13.64,8.84 L14.931,8.84 C15.388,8.84 15.76,9.204 15.76,9.653 L15.76,10.943 C15.76,11.049 15.802,11.151 15.877,11.225 L16.655,12.004 C16.815,12.163 16.901,12.373 16.9,12.596 C16.897,12.812 16.812,13.012 16.654,13.164 Z" id="Shape"></path>
                <path d="M12,10.28 C10.711,10.28 9.663,11.329 9.663,12.618 C9.663,13.907 10.711,14.956 12,14.956 C13.289,14.956 14.337,13.907 14.337,12.618 C14.337,11.329 13.289,10.28 12,10.28 Z M12,14.155 C11.152,14.155 10.462,13.466 10.462,12.618 C10.462,11.77 11.152,11.081 12,11.081 C12.848,11.081 13.538,11.77 13.538,12.618 C13.538,13.466 12.848,14.155 12,14.155 Z" id="Shape"></path>
            </g>
        </g>
    </g>
</svg>