<svg xmlns="http://www.w3.org/2000/svg" width="100" height="75" viewBox="0 0 100 75">
    <g fill="#000" fill-rule="nonzero" opacity=".8">
        <path d="M.166 0v74.566h41.31V0H.165zm20.946 71.752c-1.912 0-3.574-1.573-3.574-3.559 0-1.903 1.579-3.559 3.574-3.559 1.994 0 3.574 1.573 3.574 3.56-.083 1.903-1.663 3.558-3.574 3.558zm16.956-9.186H3.325V3.145h34.743v59.42z"/>
        <path d="M6.092 13.102l6.817-6.817.707.707-6.817 6.817zM6.092 19.899L19.727 6.264l.707.707L6.8 20.606z"/>
        <g>
            <path d="M94.078 1.293H60.83c-2.75 0-4.987 2.227-4.987 4.966v62.896c0 2.739 2.237 4.966 4.987 4.966h33.247c2.75 0 4.987-2.227 4.987-4.966V6.26c0-2.739-2.237-4.966-4.987-4.966zM69.143 12.88h-4.987a3.318 3.318 0 0 1-3.325-3.31 3.318 3.318 0 0 1 3.325-3.31h4.987a3.318 3.318 0 0 1 3.325 3.31 3.318 3.318 0 0 1-3.325 3.31z"/>
        </g>
    </g>
</svg>
